<svg xmlns="http://www.w3.org/2000/svg" width="495.01" height="455.55" viewBox="0 0 495.01 455.55">
  <path d="M96.51,72a44.06,44.06,0,0,0-44.07,44.05V523c0,1.55.09,3.1.24,4.6q24.56-9.15,52.11-20.1c127.79-51,232.25-94.38,232.35-143.34a34.44,34.44,0,0,0-.33-4.74C330.2,311,214.67,296,214.83,273.88a7.37,7.37,0,0,1,1-3.64c13.88-24.31,68.85-23.14,89.1-24.86s67.82-1.4,70.11-15.88a8.65,8.65,0,0,0,.11-1.34c.06-13.46-32.7-18.74-32.7-18.74s39.75,5.94,39.64,21.41a9.09,9.09,0,0,1-.3,2.33c-4.28,16.62-39.26,19.74-62.39,20.88-21.87,1.09-55.18,3.58-55.29,14.27a5.56,5.56,0,0,0,.31,1.93c5.22,15.62,127.31,23.14,205.42,63.68,45,23.31,67.31,62.46,77.56,102.9V116.06A44.07,44.07,0,0,0,503.4,72H96.51Z" transform="translate(-52.44 -72)" style="fill: #840010"/>
</svg>
